<svg width="112" height="80" viewBox="0 0 112 80" fill="none" xmlns="http://www.w3.org/2000/svg">
<path d="M39.5918 11.657C28.7918 13.557 20.0918 22.057 17.4918 33.357C16.7918 36.357 16.6918 37.557 16.8918 41.1569C17.1918 46.3569 17.7918 48.757 20.0918 53.457C21.3918 56.157 22.4918 57.757 24.1918 59.657L26.5918 62.257L30.0918 58.757C31.9918 56.857 33.5918 55.257 33.5918 55.157C33.5918 55.057 32.6918 54.057 31.6918 52.957C28.1918 49.357 26.6918 45.357 26.6918 40.057C26.6918 34.757 30.4918 26.857 36.5918 23.757C40.3918 21.857 42.3918 21.557 55.4918 21.557H67.2918L71.6918 17.157C74.0918 14.757 75.9918 12.757 75.8918 12.657C75.7918 12.657 75.0918 12.257 74.2918 12.057C72.5918 11.557 42.5918 11.257 39.6918 11.757L39.5918 11.657Z" fill="white"/>
<path d="M81.6933 21.2594L78.2933 24.7594L80.3933 26.9594C83.8933 30.8594 85.4933 34.8594 85.4933 40.2594C85.4933 43.4594 84.6933 46.6594 83.2933 49.2594C81.9933 51.7594 78.1933 55.1594 75.3933 56.4594C71.2933 58.3594 69.2933 58.6594 56.1933 58.6594H44.3933L40.1933 62.8594C35.4933 67.5594 35.4933 67.4594 39.2933 68.0594C42.9933 68.7594 70.4933 68.5594 73.7933 67.9594C81.5933 66.3594 89.1933 60.0594 92.6933 52.2594C94.5933 48.0594 95.2933 44.2594 95.0933 38.8594C94.9933 34.6594 94.7933 33.7594 93.5933 30.3594C92.8933 28.3594 91.7933 25.6594 91.0933 24.5594C89.8933 22.5594 85.8933 17.8594 85.2933 17.8594C84.6933 17.8594 83.4933 19.3594 81.6933 21.2594Z" fill="white"/>
<path d="M54.1915 31.06C46.2915 33.86 45.4915 44.76 52.7915 49.06C54.2915 49.96 54.8915 50.06 57.5915 50.06C60.2915 50.06 60.8915 49.96 62.3915 49.06C66.9915 46.36 68.6915 40.76 66.3915 35.86C65.3915 33.86 62.5915 31.46 60.5915 30.86C58.6915 30.36 55.8915 30.46 54.1915 30.96V31.06Z" fill="white"/>
</svg>
