<svg width="473" height="216" viewBox="0 0 473 216" fill="none" xmlns="http://www.w3.org/2000/svg">
<g clip-path="url(#clip0_1_94)">
<path d="M421.775 46.8013V215.226V46.8013ZM331.946 46.8013V215.226V46.8013ZM242.117 46.8013V215.226V46.8013ZM152.289 46.8013V215.226V46.8013ZM62.4603 46.8013V215.226V46.8013Z" fill="black"/>
<path d="M421.775 46.8013V215.226M331.946 46.8013V215.226M242.117 46.8013V215.226M152.289 46.8013V215.226M62.4603 46.8013V215.226" stroke="white" stroke-opacity="0.08" stroke-dasharray="2 2"/>
<g filter="url(#filter0_f_1_94)">
<path d="M327.782 152.179C327.838 152.245 327.969 152.245 328.081 152.245C328.746 152.245 329.232 151.815 329.354 151.272C329.433 150.936 329.376 150.582 329.196 150.288C329.015 149.993 328.726 149.782 328.39 149.7L324.086 148.605C324.021 148.549 323.899 148.549 323.777 148.549C323.483 148.523 323.19 148.607 322.955 148.785C322.72 148.963 322.559 149.223 322.505 149.513C322.383 149.812 322.449 150.177 322.626 150.486C322.813 150.785 323.113 151.029 323.478 151.094L327.782 152.179ZM335.118 149.148C335.361 149.634 335.773 149.934 336.334 149.934C336.475 149.934 336.615 149.896 336.793 149.85L336.933 149.822L340.994 147.997C341.294 147.875 341.537 147.576 341.659 147.267C341.762 146.928 341.743 146.563 341.603 146.238C341.498 146.003 341.327 145.804 341.111 145.665C340.895 145.525 340.643 145.451 340.386 145.452C340.199 145.452 340.031 145.508 339.843 145.573L335.782 147.389C335.118 147.697 334.809 148.483 335.118 149.148ZM314.869 148.97C314.935 149.026 315.056 149.026 315.178 149.026C315.777 149.026 316.329 148.605 316.451 147.997C316.572 147.697 316.507 147.333 316.329 147.033C316.142 146.724 315.842 146.481 315.477 146.425L311.173 145.33C311.117 145.274 310.986 145.274 310.874 145.274C310.266 145.274 309.723 145.695 309.601 146.303C309.522 146.639 309.579 146.993 309.76 147.288C309.94 147.582 310.23 147.793 310.565 147.875L314.869 148.97ZM301.956 145.751C302.022 145.817 302.143 145.817 302.265 145.817C302.873 145.817 303.416 145.396 303.538 144.787C303.578 144.62 303.585 144.446 303.558 144.275C303.531 144.105 303.47 143.942 303.38 143.795C303.289 143.648 303.171 143.52 303.031 143.419C302.891 143.318 302.733 143.246 302.565 143.206L298.26 142.121C298.204 142.055 298.073 142.055 297.961 142.055C297.663 142.057 297.375 142.16 297.144 142.347C296.913 142.534 296.752 142.794 296.688 143.084C296.648 143.252 296.641 143.426 296.668 143.597C296.695 143.767 296.756 143.93 296.846 144.077C296.937 144.224 297.055 144.352 297.195 144.453C297.335 144.554 297.493 144.626 297.661 144.666L301.966 145.751H301.956ZM347.179 143.637C347.423 144.123 347.844 144.423 348.396 144.423C348.489 144.423 348.583 144.404 348.677 144.385L348.873 144.357L352.934 142.486C353.598 142.177 353.907 141.391 353.598 140.727C353.527 140.567 353.424 140.424 353.297 140.304C353.17 140.185 353.02 140.091 352.857 140.03C352.693 139.968 352.519 139.939 352.345 139.945C352.17 139.95 351.998 139.99 351.839 140.062L347.788 141.877C347.476 142.023 347.234 142.285 347.114 142.607C346.992 142.972 347.058 143.328 347.179 143.637ZM289.053 142.542C289.109 142.607 289.24 142.607 289.352 142.607C289.642 142.609 289.924 142.514 290.155 142.338C290.385 142.162 290.55 141.914 290.625 141.634C290.812 140.97 290.382 140.24 289.661 140.062L285.357 138.967C285.291 138.911 285.17 138.911 285.048 138.911C284.754 138.885 284.461 138.97 284.226 139.148C283.991 139.326 283.83 139.585 283.775 139.875C283.654 140.174 283.719 140.539 283.897 140.848C284.084 141.148 284.384 141.391 284.739 141.456L289.043 142.542H289.053ZM276.14 139.332C276.196 139.388 276.327 139.388 276.439 139.388C277.048 139.388 277.534 138.967 277.712 138.425C277.767 138.264 277.784 138.093 277.763 137.924C277.742 137.756 277.683 137.594 277.59 137.452C277.502 137.296 277.381 137.161 277.235 137.056C277.09 136.951 276.924 136.879 276.748 136.843L272.444 135.758C272.378 135.693 272.257 135.692 272.135 135.692C271.536 135.636 271.05 136.057 270.863 136.666C270.784 137.003 270.842 137.358 271.025 137.653C271.207 137.947 271.499 138.158 271.836 138.238L276.14 139.332ZM359.297 138.06C359.54 138.546 359.961 138.846 360.513 138.846C360.691 138.846 360.869 138.79 361.056 138.724L365.117 136.909C365.781 136.6 366.09 135.814 365.781 135.15C365.676 134.915 365.506 134.716 365.29 134.577C365.074 134.437 364.822 134.363 364.565 134.364C364.387 134.364 364.209 134.42 364.032 134.485L359.961 136.301C359.641 136.447 359.393 136.715 359.27 137.045C359.147 137.375 359.16 137.74 359.306 138.06H359.297ZM263.171 136.123C263.227 136.179 263.358 136.179 263.47 136.179C264.135 136.179 264.621 135.758 264.743 135.206C264.822 134.87 264.765 134.516 264.585 134.222C264.404 133.927 264.115 133.716 263.779 133.634L259.475 132.539C259.409 132.483 259.288 132.483 259.166 132.483C258.872 132.457 258.579 132.541 258.344 132.719C258.109 132.898 257.948 133.157 257.894 133.447C257.772 133.756 257.837 134.121 258.015 134.42C258.202 134.729 258.502 134.963 258.857 135.028L263.162 136.123H263.171ZM371.358 132.539C371.602 133.026 372.023 133.325 372.575 133.325C372.762 133.325 372.94 133.269 373.061 133.204L377.122 131.388C377.442 131.242 377.691 130.974 377.814 130.644C377.936 130.314 377.923 129.949 377.777 129.629C377.706 129.471 377.603 129.329 377.477 129.21C377.35 129.092 377.201 128.999 377.038 128.939C376.876 128.878 376.703 128.85 376.529 128.856C376.356 128.862 376.185 128.902 376.027 128.974L371.966 130.78C371.658 130.927 371.42 131.189 371.302 131.51C371.18 131.875 371.237 132.24 371.358 132.539ZM250.258 132.904C250.314 132.97 250.445 132.97 250.558 132.97C251.166 132.97 251.718 132.595 251.84 132.062C251.896 131.688 251.839 131.332 251.652 131.033C251.465 130.724 251.231 130.481 250.866 130.425L246.562 129.33C246.506 129.274 246.375 129.274 246.263 129.274C245.654 129.274 245.168 129.629 244.981 130.237C244.868 130.546 244.925 130.902 245.102 131.211C245.289 131.51 245.589 131.753 245.954 131.819L250.258 132.904ZM383.485 127.028C383.728 127.515 384.15 127.814 384.702 127.814C384.842 127.814 384.982 127.777 385.16 127.73L385.3 127.692L389.361 125.877C389.661 125.755 389.904 125.447 390.026 125.147C390.13 124.808 390.11 124.444 389.97 124.118C389.865 123.883 389.694 123.684 389.478 123.545C389.262 123.405 389.01 123.331 388.753 123.332C388.575 123.332 388.398 123.388 388.211 123.454L384.15 125.269C383.99 125.341 383.847 125.443 383.727 125.57C383.608 125.698 383.514 125.847 383.453 126.011C383.391 126.174 383.362 126.348 383.368 126.523C383.373 126.697 383.413 126.869 383.485 127.028ZM395.425 120.965C395.425 121.694 396.033 122.237 396.754 122.237C396.941 122.237 397.128 122.237 397.306 122.181L401.367 120.356C402.022 120.057 402.33 119.271 402.022 118.597C401.917 118.364 401.748 118.166 401.534 118.027C401.32 117.887 401.07 117.812 400.815 117.811C400.637 117.811 400.45 117.877 400.272 117.933L396.211 119.748C395.724 119.992 395.425 120.422 395.425 120.965ZM407.664 115.931C407.907 116.417 408.338 116.717 408.88 116.717C409.068 116.717 409.245 116.66 409.423 116.595L413.484 114.78C414.158 114.48 414.457 113.694 414.158 113.021C413.849 112.366 413.063 112.057 412.399 112.366L408.338 114.171C408.178 114.242 408.033 114.344 407.913 114.471C407.792 114.598 407.698 114.748 407.635 114.911C407.573 115.074 407.543 115.249 407.548 115.424C407.553 115.599 407.592 115.771 407.664 115.931ZM420.09 111.327C420.212 111.935 420.764 112.356 421.363 112.356C421.428 112.356 421.55 112.356 421.606 112.422L425.976 111.57C426.284 111.507 426.56 111.34 426.758 111.096C426.956 110.852 427.063 110.546 427.061 110.232C427.064 110.057 427.031 109.883 426.965 109.721C426.899 109.558 426.802 109.411 426.678 109.287C426.554 109.163 426.406 109.065 426.244 109C426.082 108.934 425.908 108.901 425.733 108.904H425.489L421.12 109.811C420.764 109.867 420.465 110.054 420.277 110.354C420.09 110.597 420.034 110.962 420.09 111.327ZM433.125 108.716C433.246 109.325 433.789 109.746 434.397 109.746H434.641L439.001 108.838C439.375 108.782 439.665 108.595 439.843 108.295C440.03 108.052 440.096 107.687 440.03 107.322C439.968 107.031 439.808 106.77 439.576 106.582C439.345 106.395 439.056 106.293 438.758 106.293H438.515L434.154 107.201C433.789 107.266 433.49 107.444 433.312 107.753C433.125 107.996 433.069 108.351 433.125 108.716ZM446.103 106.05C446.281 106.658 446.824 107.079 447.432 107.079C447.554 107.079 447.619 107.079 447.731 107.144L452.092 106.237C452.7 106.115 453.121 105.572 453.121 104.964C453.121 104.234 452.522 103.626 451.792 103.626H451.549L447.123 104.534C446.758 104.599 446.459 104.777 446.281 105.086C446.094 105.329 446.038 105.685 446.094 106.05H446.103ZM459.184 103.14C459.184 103.869 459.793 104.478 460.523 104.478C460.579 104.478 460.71 104.478 460.822 104.412L465.192 103.505C465.547 103.448 465.847 103.261 466.034 102.962C466.221 102.662 466.277 102.354 466.221 101.989C466.034 101.381 465.491 100.959 464.883 100.959H464.64L460.279 101.802C459.974 101.87 459.7 102.04 459.501 102.282C459.303 102.525 459.191 102.826 459.184 103.14Z" fill="#0081F1"/>
</g>
<g filter="url(#filter1_f_1_94)">
<path d="M6.31741 89.778L63.003 47.5968L150.829 76.5098L239.685 130.097L239.619 126.579L153.795 74.8724C153.647 74.7654 153.483 74.6833 153.309 74.6291L63.5457 45.1172C63.1735 44.9989 62.7853 44.9389 62.3948 44.9395C61.7866 44.9395 61.1783 45.0611 60.6356 45.426L6.31741 85.7826V89.778Z" fill="#0081F1"/>
</g>
<path d="M327.782 152.18C327.838 152.245 327.969 152.245 328.081 152.245C328.746 152.245 329.232 151.815 329.354 151.272C329.433 150.936 329.376 150.582 329.196 150.288C329.015 149.993 328.726 149.782 328.39 149.7L324.086 148.605C324.021 148.549 323.899 148.549 323.777 148.549C323.483 148.523 323.19 148.607 322.955 148.785C322.72 148.964 322.559 149.223 322.505 149.513C322.383 149.812 322.448 150.177 322.626 150.486C322.813 150.785 323.113 151.029 323.478 151.094L327.782 152.18ZM335.118 149.148C335.361 149.634 335.773 149.934 336.334 149.934C336.475 149.934 336.615 149.896 336.793 149.85L336.933 149.822L340.994 147.997C341.294 147.875 341.537 147.576 341.659 147.267C341.762 146.928 341.743 146.563 341.603 146.238C341.498 146.003 341.327 145.804 341.111 145.665C340.895 145.525 340.643 145.451 340.386 145.452C340.199 145.452 340.031 145.508 339.843 145.574L335.782 147.389C335.118 147.698 334.809 148.484 335.118 149.148ZM314.869 148.97C314.935 149.026 315.056 149.026 315.178 149.026C315.777 149.026 316.329 148.605 316.451 147.997C316.572 147.698 316.507 147.333 316.329 147.033C316.142 146.724 315.842 146.481 315.477 146.425L311.173 145.33C311.117 145.274 310.986 145.274 310.874 145.274C310.265 145.274 309.723 145.695 309.601 146.303C309.522 146.64 309.579 146.993 309.76 147.288C309.94 147.582 310.23 147.793 310.565 147.875L314.869 148.97ZM301.956 145.751C302.022 145.817 302.143 145.817 302.265 145.817C302.873 145.817 303.416 145.396 303.538 144.788C303.578 144.62 303.585 144.446 303.558 144.275C303.531 144.105 303.47 143.942 303.38 143.795C303.289 143.648 303.171 143.52 303.031 143.419C302.891 143.318 302.732 143.246 302.565 143.206L298.26 142.121C298.204 142.055 298.073 142.055 297.961 142.055C297.663 142.057 297.375 142.16 297.144 142.347C296.913 142.534 296.752 142.794 296.688 143.085C296.648 143.252 296.641 143.426 296.668 143.597C296.695 143.767 296.756 143.93 296.846 144.077C296.937 144.224 297.055 144.352 297.195 144.453C297.335 144.554 297.493 144.626 297.661 144.666L301.966 145.751H301.956ZM347.179 143.637C347.423 144.123 347.844 144.423 348.396 144.423C348.489 144.423 348.583 144.404 348.677 144.385L348.873 144.357L352.934 142.486C353.598 142.177 353.907 141.391 353.598 140.727C353.527 140.567 353.424 140.424 353.297 140.304C353.17 140.185 353.02 140.091 352.857 140.03C352.693 139.968 352.519 139.939 352.345 139.945C352.17 139.95 351.998 139.99 351.839 140.062L347.788 141.878C347.476 142.023 347.234 142.285 347.114 142.607C346.992 142.972 347.058 143.328 347.179 143.637ZM289.053 142.542C289.109 142.607 289.24 142.607 289.352 142.607C289.642 142.609 289.924 142.514 290.155 142.338C290.385 142.162 290.55 141.914 290.625 141.634C290.812 140.97 290.382 140.24 289.661 140.062L285.357 138.968C285.291 138.911 285.17 138.911 285.048 138.911C284.754 138.885 284.461 138.97 284.226 139.148C283.991 139.326 283.83 139.585 283.775 139.875C283.654 140.175 283.719 140.539 283.897 140.848C284.084 141.148 284.384 141.391 284.739 141.456L289.043 142.542H289.053ZM276.14 139.332C276.196 139.389 276.327 139.389 276.439 139.389C277.048 139.389 277.534 138.968 277.712 138.425C277.767 138.264 277.784 138.093 277.763 137.924C277.742 137.756 277.683 137.594 277.59 137.452C277.502 137.296 277.38 137.161 277.235 137.056C277.09 136.951 276.924 136.879 276.748 136.843L272.444 135.758C272.378 135.693 272.257 135.693 272.135 135.693C271.536 135.636 271.05 136.057 270.863 136.666C270.784 137.003 270.842 137.358 271.025 137.653C271.207 137.947 271.499 138.158 271.836 138.238L276.14 139.332ZM359.297 138.06C359.54 138.546 359.961 138.846 360.513 138.846C360.691 138.846 360.869 138.79 361.056 138.724L365.117 136.909C365.781 136.6 366.09 135.814 365.781 135.15C365.676 134.915 365.506 134.716 365.29 134.577C365.074 134.437 364.822 134.363 364.565 134.364C364.387 134.364 364.209 134.42 364.032 134.486L359.961 136.301C359.641 136.447 359.393 136.715 359.27 137.045C359.147 137.375 359.16 137.74 359.306 138.06H359.297ZM263.171 136.123C263.227 136.179 263.358 136.179 263.47 136.179C264.135 136.179 264.621 135.758 264.743 135.206C264.822 134.87 264.765 134.516 264.585 134.222C264.404 133.927 264.115 133.716 263.779 133.634L259.475 132.539C259.409 132.483 259.288 132.483 259.166 132.483C258.872 132.457 258.579 132.541 258.344 132.72C258.109 132.898 257.948 133.157 257.894 133.447C257.772 133.756 257.837 134.121 258.015 134.42C258.202 134.729 258.502 134.963 258.857 135.028L263.162 136.123H263.171ZM371.358 132.539C371.602 133.026 372.023 133.325 372.575 133.325C372.762 133.325 372.94 133.269 373.061 133.204L377.122 131.388C377.442 131.242 377.691 130.974 377.814 130.644C377.936 130.314 377.923 129.949 377.777 129.629C377.706 129.471 377.603 129.329 377.477 129.21C377.35 129.092 377.201 129 377.038 128.939C376.876 128.878 376.703 128.85 376.529 128.856C376.356 128.862 376.185 128.902 376.027 128.974L371.966 130.78C371.658 130.928 371.42 131.189 371.302 131.51C371.18 131.875 371.237 132.24 371.358 132.539ZM250.258 132.904C250.314 132.97 250.445 132.97 250.558 132.97C251.166 132.97 251.718 132.595 251.84 132.062C251.896 131.688 251.839 131.332 251.652 131.033C251.465 130.724 251.231 130.481 250.866 130.425L246.562 129.33C246.506 129.274 246.375 129.274 246.263 129.274C245.654 129.274 245.168 129.629 244.981 130.237C244.868 130.546 244.925 130.902 245.102 131.211C245.289 131.51 245.589 131.753 245.954 131.819L250.258 132.904ZM383.485 127.028C383.728 127.515 384.15 127.814 384.702 127.814C384.842 127.814 384.982 127.777 385.16 127.73L385.3 127.692L389.361 125.877C389.661 125.755 389.904 125.447 390.026 125.147C390.129 124.808 390.11 124.444 389.97 124.118C389.865 123.883 389.694 123.684 389.478 123.545C389.262 123.405 389.01 123.331 388.753 123.332C388.575 123.332 388.398 123.388 388.211 123.454L384.15 125.269C383.99 125.341 383.847 125.443 383.727 125.57C383.608 125.698 383.514 125.847 383.453 126.011C383.391 126.174 383.362 126.348 383.368 126.523C383.373 126.697 383.413 126.869 383.485 127.028ZM395.425 120.965C395.425 121.695 396.033 122.237 396.754 122.237C396.941 122.237 397.128 122.237 397.306 122.181L401.367 120.357C402.022 120.057 402.33 119.271 402.022 118.597C401.917 118.364 401.748 118.166 401.534 118.027C401.32 117.887 401.07 117.813 400.815 117.811C400.637 117.811 400.45 117.877 400.272 117.933L396.211 119.748C395.724 119.992 395.425 120.422 395.425 120.965ZM407.664 115.931C407.907 116.417 408.338 116.717 408.88 116.717C409.068 116.717 409.245 116.661 409.423 116.595L413.484 114.78C414.158 114.48 414.457 113.694 414.158 113.021C413.849 112.366 413.063 112.057 412.399 112.366L408.338 114.172C408.178 114.243 408.033 114.344 407.913 114.471C407.792 114.598 407.698 114.748 407.635 114.911C407.573 115.075 407.543 115.249 407.548 115.424C407.553 115.599 407.592 115.771 407.664 115.931ZM420.09 111.327C420.212 111.935 420.764 112.356 421.363 112.356C421.428 112.356 421.55 112.356 421.606 112.422L425.976 111.57C426.284 111.508 426.56 111.34 426.758 111.096C426.956 110.852 427.063 110.547 427.061 110.232C427.064 110.057 427.031 109.883 426.965 109.721C426.899 109.559 426.802 109.411 426.678 109.287C426.554 109.163 426.406 109.065 426.244 109C426.082 108.934 425.908 108.901 425.733 108.904H425.489L421.12 109.811C420.764 109.867 420.465 110.055 420.277 110.354C420.09 110.597 420.034 110.962 420.09 111.327ZM433.125 108.716C433.246 109.325 433.789 109.746 434.397 109.746H434.641L439.001 108.838C439.375 108.782 439.665 108.595 439.843 108.295C440.03 108.052 440.096 107.687 440.03 107.322C439.968 107.031 439.808 106.77 439.576 106.582C439.345 106.395 439.056 106.293 438.758 106.293H438.514L434.154 107.201C433.789 107.266 433.49 107.444 433.312 107.753C433.125 107.996 433.069 108.352 433.125 108.716ZM446.103 106.05C446.281 106.658 446.824 107.079 447.432 107.079C447.553 107.079 447.619 107.079 447.731 107.145L452.092 106.237C452.7 106.115 453.121 105.573 453.121 104.964C453.121 104.234 452.522 103.626 451.792 103.626H451.549L447.123 104.534C446.758 104.599 446.459 104.777 446.281 105.086C446.094 105.329 446.038 105.685 446.094 106.05H446.103ZM459.184 103.14C459.184 103.87 459.793 104.478 460.522 104.478C460.579 104.478 460.71 104.478 460.822 104.412L465.192 103.505C465.547 103.449 465.847 103.261 466.034 102.962C466.221 102.663 466.277 102.354 466.221 101.989C466.034 101.381 465.491 100.96 464.883 100.96H464.64L460.279 101.802C459.974 101.871 459.7 102.04 459.501 102.282C459.303 102.525 459.191 102.827 459.184 103.14ZM6.31741 89.778L63.003 47.5968L150.829 76.5098L239.685 130.097L239.619 126.579L153.795 74.8724C153.647 74.7654 153.483 74.6833 153.309 74.6291L63.5457 45.1172C63.1735 44.9989 62.7853 44.9389 62.3948 44.9395C61.7866 44.9395 61.1783 45.0611 60.6356 45.426L6.31741 85.7826V89.778Z" fill="#0081F1"/>
</g>
<defs>
<filter id="filter0_f_1_94" x="238.923" y="94.9595" width="233.319" height="63.2856" filterUnits="userSpaceOnUse" color-interpolation-filters="sRGB">
<feFlood flood-opacity="0" result="BackgroundImageFix"/>
<feBlend mode="normal" in="SourceGraphic" in2="BackgroundImageFix" result="shape"/>
<feGaussianBlur stdDeviation="3" result="effect1_foregroundBlur_1_94"/>
</filter>
<filter id="filter1_f_1_94" x="0.31741" y="38.9395" width="245.367" height="97.1577" filterUnits="userSpaceOnUse" color-interpolation-filters="sRGB">
<feFlood flood-opacity="0" result="BackgroundImageFix"/>
<feBlend mode="normal" in="SourceGraphic" in2="BackgroundImageFix" result="shape"/>
<feGaussianBlur stdDeviation="3" result="effect1_foregroundBlur_1_94"/>
</filter>
<clipPath id="clip0_1_94">
<rect width="471.6" height="215.21" fill="white" transform="translate(0.703125 0.0166016)"/>
</clipPath>
</defs>
</svg>
