<svg width="184" height="120" viewBox="0 0 184 120" fill="none" xmlns="http://www.w3.org/2000/svg">
<path d="M16.5508 101.801L24.2508 92.6998H17.6508C17.1508 92.6998 16.8508 92.6008 16.5508 92.403C16.3508 92.2051 16.1508 91.9084 16.1508 91.6116C16.1508 91.3148 16.2508 91.0181 16.5508 90.8202C16.7508 90.6224 17.1508 90.5234 17.6508 90.5234H26.2508C27.3508 90.5234 27.9508 91.0181 27.9508 92.0073C27.9508 92.9965 27.9508 92.8976 27.6508 93.1944C27.3508 93.4911 27.0508 93.9858 26.5508 94.5793L19.3508 103.087H27.3508C27.8508 103.087 28.1508 103.087 28.4508 103.384C28.6508 103.581 28.7508 103.878 28.7508 104.175C28.7508 104.472 28.6508 104.768 28.4508 105.065C28.2508 105.362 27.8508 105.362 27.3508 105.362H17.5508C16.8508 105.362 16.3508 105.263 16.0508 104.966C15.7508 104.67 15.5508 104.274 15.5508 103.779C15.5508 103.285 15.5508 103.482 15.5508 103.285C15.5508 103.087 15.6508 102.988 15.7508 102.889C15.7508 102.79 15.9508 102.592 16.1508 102.394C16.3508 102.196 16.4508 101.999 16.5508 101.9V101.801Z" fill="white"/>
<path d="M38.05 100.615H32.55C32.55 101.209 32.65 101.802 32.95 102.297C33.25 102.791 33.55 103.187 33.95 103.385C34.35 103.583 34.85 103.781 35.35 103.781C35.85 103.781 35.95 103.781 36.25 103.682C36.55 103.682 36.75 103.484 37.05 103.286C37.35 103.088 37.55 102.989 37.75 102.791C37.95 102.593 38.25 102.297 38.65 102C38.75 101.901 38.95 101.802 39.25 101.802C39.55 101.802 39.75 101.802 39.95 102C40.15 102.198 40.25 102.396 40.25 102.692C40.25 102.989 40.25 103.187 39.95 103.583C39.75 103.879 39.45 104.275 39.05 104.572C38.65 104.869 38.15 105.166 37.55 105.363C36.95 105.561 36.25 105.66 35.45 105.66C33.65 105.66 32.25 105.166 31.25 104.176C30.25 103.187 29.75 101.802 29.75 100.021C29.75 98.2409 29.85 98.4387 30.15 97.7462C30.35 97.0538 30.75 96.4602 31.25 95.9656C31.75 95.471 32.35 95.0753 32.95 94.7785C33.65 94.4817 34.45 94.3828 35.25 94.3828C36.05 94.3828 37.25 94.5807 38.05 95.0753C38.85 95.5699 39.45 96.1634 39.85 96.8559C40.25 97.5484 40.45 98.3398 40.45 99.0322C40.45 99.7247 40.25 100.219 39.85 100.417C39.45 100.615 38.85 100.714 38.15 100.714L38.05 100.615ZM32.65 99.0322H37.75C37.75 98.043 37.45 97.3505 36.95 96.9548C36.55 96.4602 35.95 96.2624 35.15 96.2624C34.35 96.2624 33.85 96.4602 33.45 96.9548C33.05 97.4495 32.75 98.1419 32.65 99.0322Z" fill="white"/>
<path d="M45.55 101.602V103.877C45.55 104.47 45.45 104.866 45.15 105.163C44.85 105.46 44.55 105.559 44.15 105.559C43.75 105.559 43.45 105.46 43.15 105.163C42.85 104.866 42.75 104.47 42.75 103.877V96.1608C42.75 94.8748 43.25 94.2812 44.15 94.2812C45.05 94.2812 44.95 94.3802 45.15 94.6769C45.35 94.9737 45.45 95.3694 45.45 95.963C45.75 95.3694 46.15 94.9737 46.45 94.6769C46.85 94.3802 47.25 94.2812 47.85 94.2812C48.45 94.2812 49.05 94.3802 49.55 94.6769C50.05 94.9737 50.35 95.3694 50.35 95.864C50.35 96.3586 50.25 96.4576 49.95 96.6554C49.75 96.8533 49.45 96.9522 49.15 96.9522C48.85 96.9522 48.75 96.9522 48.45 96.7543C48.05 96.6554 47.75 96.5565 47.45 96.5565C47.15 96.5565 46.75 96.6554 46.45 96.8533C46.15 97.0511 45.95 97.3479 45.85 97.8425C45.75 98.3371 45.65 98.7328 45.55 99.3264C45.55 99.9199 45.55 100.612 45.55 101.404V101.602Z" fill="white"/>
<path d="M61.6492 99.9199C61.6492 100.711 61.5492 101.503 61.2492 102.195C60.9492 102.888 60.6492 103.481 60.1492 103.976C59.6492 104.47 59.0492 104.866 58.3492 105.163C57.6492 105.46 56.8492 105.559 56.0492 105.559C55.2492 105.559 54.4492 105.46 53.7492 105.163C53.0492 104.866 52.4492 104.47 51.9492 103.976C51.4492 103.481 51.0492 102.888 50.8492 102.195C50.5492 101.503 50.4492 100.711 50.4492 99.9199C50.4492 99.1285 50.5492 98.3371 50.8492 97.6447C51.1492 96.9522 51.4492 96.3586 51.9492 95.864C52.4492 95.3694 53.0492 94.9737 53.7492 94.6769C54.4492 94.3802 55.2492 94.2812 56.0492 94.2812C56.8492 94.2812 57.6492 94.3802 58.3492 94.6769C59.0492 94.9737 59.6492 95.3694 60.1492 95.864C60.6492 96.3586 61.0492 96.9522 61.2492 97.6447C61.5492 98.3371 61.6492 99.1285 61.6492 99.9199ZM58.8492 99.9199C58.8492 98.8317 58.5492 97.9414 58.0492 97.249C57.5492 96.6554 56.8492 96.2597 56.0492 96.2597C55.2492 96.2597 55.0492 96.3586 54.6492 96.6554C54.2492 96.9522 53.9492 97.3479 53.6492 97.9414C53.3492 98.535 53.3492 99.1285 53.3492 99.821C53.3492 100.513 53.4492 101.206 53.6492 101.701C53.8492 102.195 54.1492 102.69 54.6492 102.987C55.0492 103.283 55.5492 103.382 56.1492 103.382C56.9492 103.382 57.6492 103.085 58.1492 102.393C58.6492 101.799 58.9492 100.909 58.9492 99.7221L58.8492 99.9199Z" fill="white"/>
<path d="M75.1516 99.5255H72.3516V103.779C72.3516 104.373 72.2516 104.867 71.9516 105.164C71.6516 105.461 71.3516 105.659 70.8516 105.659C70.3516 105.659 70.0516 105.461 69.7516 105.164C69.4516 104.867 69.3516 104.373 69.3516 103.779V92.3041C69.3516 91.6116 69.5516 91.2159 69.8516 90.9191C70.1516 90.6224 70.6516 90.5234 71.3516 90.5234H75.2516C76.4516 90.5234 77.2516 90.5234 77.9516 90.8202C78.5516 91.0181 79.0516 91.3148 79.5516 91.7105C80.0516 92.1062 80.3516 92.6008 80.5516 93.1944C80.7516 93.7879 80.8516 94.3815 80.8516 95.0739C80.8516 96.5578 80.3516 97.7449 79.4516 98.5363C78.5516 99.3277 77.1516 99.7234 75.2516 99.7234L75.1516 99.5255ZM74.3516 92.6998H72.2516V97.2503H74.3516C75.0516 97.2503 75.6516 97.2503 76.1516 97.0524C76.6516 96.8546 76.9516 96.6567 77.2516 96.3599C77.5516 96.0632 77.6516 95.5686 77.6516 95.0739C77.6516 94.5793 77.4516 93.8868 77.0516 93.4912C76.6516 93.0955 75.7516 92.7987 74.3516 92.7987V92.6998Z" fill="white"/>
<path d="M92.7508 99.9199C92.7508 100.711 92.6508 101.503 92.3508 102.195C92.0508 102.888 91.7508 103.481 91.2508 103.976C90.7508 104.47 90.1508 104.866 89.4508 105.163C88.7508 105.46 87.9508 105.559 87.1508 105.559C86.3508 105.559 85.5508 105.46 84.8508 105.163C84.1508 104.866 83.5508 104.47 83.0508 103.976C82.5508 103.481 82.1508 102.888 81.9508 102.195C81.6508 101.503 81.5508 100.711 81.5508 99.9199C81.5508 99.1285 81.6508 98.3371 81.9508 97.6447C82.2508 96.9522 82.5508 96.3586 83.0508 95.864C83.5508 95.3694 84.1508 94.9737 84.8508 94.6769C85.5508 94.3802 86.3508 94.2812 87.1508 94.2812C87.9508 94.2812 88.7508 94.3802 89.4508 94.6769C90.1508 94.9737 90.7508 95.3694 91.2508 95.864C91.7508 96.3586 92.1508 96.9522 92.3508 97.6447C92.6508 98.3371 92.7508 99.1285 92.7508 99.9199ZM89.9508 99.9199C89.9508 98.8317 89.6508 97.9414 89.1508 97.249C88.6508 96.6554 87.9508 96.2597 87.1508 96.2597C86.3508 96.2597 86.1508 96.3586 85.7508 96.6554C85.3508 96.9522 85.0508 97.3479 84.7508 97.9414C84.4508 98.535 84.4508 99.1285 84.4508 99.821C84.4508 100.513 84.5508 101.206 84.7508 101.701C84.9508 102.195 85.2508 102.69 85.7508 102.987C86.1508 103.283 86.6508 103.382 87.2508 103.382C88.0508 103.382 88.7508 103.085 89.2508 102.393C89.7508 101.799 90.0508 100.909 90.0508 99.7221L89.9508 99.9199Z" fill="white"/>
<path d="M96.4492 92.9964C96.0492 92.9964 95.7492 92.8975 95.4492 92.6007C95.1492 92.4029 95.0492 92.0072 95.0492 91.6115C95.0492 91.2158 95.1492 90.919 95.4492 90.6223C95.7492 90.3255 96.0492 90.2266 96.4492 90.2266C96.8492 90.2266 97.1492 90.3255 97.4492 90.5233C97.7492 90.7212 97.8492 91.1169 97.8492 91.5126C97.8492 91.9083 97.7492 92.304 97.4492 92.5018C97.1492 92.6997 96.8492 92.8975 96.4492 92.8975V92.9964ZM97.7492 95.8652V103.878C97.7492 104.472 97.6492 104.867 97.3492 105.164C97.0492 105.461 96.7492 105.56 96.3492 105.56C95.9492 105.56 95.6492 105.461 95.3492 105.164C95.0492 104.867 94.9492 104.472 94.9492 103.878V95.9641C94.9492 95.3706 95.0492 94.9749 95.3492 94.6781C95.6492 94.3814 95.9492 94.2824 96.3492 94.2824C96.7492 94.2824 97.0492 94.3814 97.3492 94.6781C97.6492 94.9749 97.7492 95.3706 97.7492 95.8652Z" fill="white"/>
<path d="M103.251 95.8614V96.1582C103.751 95.5646 104.251 95.07 104.851 94.7732C105.451 94.4765 106.151 94.2786 106.851 94.2786C107.551 94.2786 108.251 94.4765 108.851 94.7732C109.451 95.07 109.851 95.5646 110.151 96.1582C110.351 96.4549 110.451 96.8506 110.551 97.2463C110.651 97.642 110.551 98.1366 110.551 98.7302V103.874C110.551 104.468 110.451 104.863 110.151 105.16C109.851 105.457 109.551 105.556 109.151 105.556C108.751 105.556 108.351 105.457 108.151 105.16C107.951 104.863 107.751 104.468 107.751 103.874V99.2248C107.751 98.3345 107.651 97.642 107.351 97.1474C107.051 96.6528 106.551 96.4549 105.851 96.4549C105.151 96.4549 104.851 96.5539 104.451 96.8506C104.051 97.1474 103.751 97.5431 103.551 98.0377C103.451 98.4334 103.351 99.2248 103.351 100.313V103.775C103.351 104.369 103.251 104.765 102.951 105.061C102.651 105.358 102.351 105.457 101.951 105.457C101.551 105.457 101.251 105.358 100.951 105.061C100.651 104.765 100.551 104.369 100.551 103.775V95.7625C100.551 95.2679 100.651 94.8722 100.851 94.5754C101.051 94.2786 101.451 94.1797 101.851 94.1797C102.251 94.1797 102.351 94.1797 102.551 94.3775C102.751 94.5754 102.951 94.6743 103.051 94.8722C103.151 95.07 103.251 95.3668 103.251 95.7625V95.8614Z" fill="white"/>
<path d="M113.552 94.5845H113.852V92.9028C113.852 92.4082 113.852 92.1114 113.852 91.8146C113.852 91.5179 113.852 91.32 114.052 91.1222C114.152 90.9243 114.352 90.8254 114.552 90.6275C114.752 90.4297 114.952 90.4297 115.252 90.4297C115.552 90.4297 115.952 90.5286 116.252 90.8254C116.552 91.1222 116.552 91.2211 116.652 91.5179C116.652 91.8146 116.652 92.1114 116.652 92.606V94.4856H117.652C118.052 94.4856 118.352 94.4856 118.552 94.7823C118.752 94.9802 118.852 95.178 118.852 95.4748C118.852 95.7716 118.752 96.0684 118.452 96.2662C118.152 96.464 117.752 96.464 117.152 96.464H116.652V101.509C116.652 101.905 116.652 102.301 116.652 102.498C116.652 102.696 116.752 102.894 116.852 103.092C116.952 103.191 117.252 103.29 117.552 103.29C117.852 103.29 117.952 103.29 118.252 103.29C118.552 103.29 118.752 103.29 118.952 103.29C119.152 103.29 119.352 103.29 119.552 103.587C119.752 103.784 119.852 103.982 119.852 104.279C119.852 104.774 119.652 105.07 119.152 105.268C118.652 105.466 117.952 105.664 117.052 105.664C116.152 105.664 115.552 105.565 115.052 105.268C114.552 104.971 114.352 104.576 114.152 104.081C113.952 103.587 113.952 102.894 113.952 102.004V96.6619H113.552C113.152 96.6619 112.852 96.6619 112.652 96.3651C112.452 96.0683 112.352 95.9694 112.352 95.6727C112.352 95.3759 112.452 95.178 112.652 94.9802C112.852 94.7823 113.152 94.6834 113.652 94.6834L113.552 94.5845Z" fill="white"/>
<path d="M132.05 99.5255H129.25V103.779C129.25 104.373 129.15 104.867 128.85 105.164C128.55 105.461 128.25 105.659 127.75 105.659C127.25 105.659 126.95 105.461 126.65 105.164C126.35 104.867 126.25 104.373 126.25 103.779V92.3041C126.25 91.6116 126.45 91.2159 126.75 90.9191C127.05 90.6224 127.55 90.5234 128.25 90.5234H132.15C133.35 90.5234 134.15 90.5234 134.85 90.8202C135.45 91.0181 135.95 91.3148 136.45 91.7105C136.95 92.1062 137.25 92.6008 137.45 93.1944C137.65 93.7879 137.75 94.3815 137.75 95.0739C137.75 96.5578 137.25 97.7449 136.35 98.5363C135.45 99.3277 134.05 99.7234 132.15 99.7234L132.05 99.5255ZM131.35 92.6998H129.25V97.2503H131.35C132.05 97.2503 132.65 97.2503 133.15 97.0524C133.65 96.8546 133.95 96.6567 134.25 96.3599C134.55 96.0632 134.65 95.5686 134.65 95.0739C134.65 94.5793 134.45 93.8868 134.05 93.4912C133.65 93.0955 132.75 92.7987 131.35 92.7987V92.6998Z" fill="white"/>
<path d="M146.352 103.976C145.652 104.47 145.052 104.866 144.352 105.163C143.752 105.46 143.052 105.559 142.252 105.559C141.452 105.559 140.952 105.46 140.352 105.163C139.852 104.866 139.352 104.47 139.052 103.976C138.752 103.481 138.652 102.987 138.652 102.393C138.652 101.799 138.852 101.008 139.352 100.415C139.852 99.821 140.552 99.5242 141.352 99.3264C141.552 99.3264 141.952 99.2274 142.652 99.0296C143.352 98.8317 143.952 98.7328 144.452 98.6339C144.952 98.535 145.452 98.3371 146.052 98.2382C146.052 97.5457 145.852 96.9522 145.652 96.6554C145.352 96.3586 144.852 96.1608 144.052 96.1608C143.252 96.1608 142.852 96.1608 142.452 96.4576C142.052 96.6554 141.752 96.9522 141.552 97.3479C141.252 97.7436 141.152 98.0403 141.052 98.1393C140.952 98.2382 140.752 98.3371 140.352 98.3371C139.952 98.3371 139.752 98.2382 139.552 98.0404C139.352 97.8425 139.252 97.5457 139.252 97.249C139.252 96.7543 139.452 96.2597 139.752 95.864C140.052 95.4683 140.652 95.0726 141.352 94.7759C142.052 94.4791 143.052 94.2812 144.152 94.2812C145.252 94.2812 146.352 94.3802 147.052 94.6769C147.752 94.9737 148.252 95.4683 148.552 96.0619C148.852 96.6554 148.952 97.5457 148.952 98.535C148.952 99.5242 148.952 99.7221 148.952 100.217C148.952 100.711 148.952 101.206 148.952 101.701C148.952 102.195 148.952 102.789 149.252 103.283C149.452 103.877 149.552 104.174 149.552 104.371C149.552 104.668 149.452 104.866 149.152 105.163C148.852 105.361 148.552 105.559 148.252 105.559C147.952 105.559 147.652 105.46 147.352 105.163C147.052 104.866 146.752 104.47 146.452 103.976H146.352ZM146.152 100.019C145.752 100.217 145.152 100.316 144.352 100.513C143.552 100.711 143.052 100.81 142.752 100.909C142.452 100.909 142.152 101.107 141.852 101.404C141.552 101.701 141.452 101.898 141.452 102.393C141.452 102.888 141.652 103.184 141.952 103.481C142.252 103.778 142.652 103.877 143.252 103.877C143.852 103.877 144.352 103.778 144.752 103.481C145.252 103.283 145.552 102.888 145.752 102.591C146.052 102.195 146.152 101.503 146.152 100.513V100.118V100.019Z" fill="white"/>
<path d="M151.352 94.5845H151.652V92.9028C151.652 92.4082 151.652 92.1114 151.652 91.8146C151.652 91.5179 151.652 91.32 151.852 91.1222C151.952 90.9243 152.152 90.8254 152.352 90.6275C152.552 90.4297 152.752 90.4297 153.052 90.4297C153.352 90.4297 153.752 90.5286 154.052 90.8254C154.352 91.1222 154.352 91.2211 154.452 91.5179C154.452 91.8146 154.452 92.1114 154.452 92.606V94.4856H155.452C155.852 94.4856 156.152 94.4856 156.352 94.7823C156.552 94.9802 156.652 95.178 156.652 95.4748C156.652 95.7716 156.552 96.0684 156.252 96.2662C155.952 96.464 155.552 96.464 154.952 96.464H154.452V101.509C154.452 101.905 154.452 102.301 154.452 102.498C154.452 102.696 154.552 102.894 154.652 103.092C154.752 103.191 154.952 103.29 155.352 103.29C155.752 103.29 155.752 103.29 156.052 103.29C156.352 103.29 156.552 103.29 156.752 103.29C156.952 103.29 157.152 103.29 157.352 103.587C157.552 103.784 157.652 103.982 157.652 104.279C157.652 104.774 157.452 105.07 156.952 105.268C156.452 105.466 155.752 105.664 154.852 105.664C153.952 105.664 153.352 105.565 152.852 105.268C152.352 104.971 152.152 104.576 151.952 104.081C151.852 103.587 151.752 102.894 151.752 102.004V96.6619H151.352C150.952 96.6619 150.652 96.6619 150.452 96.3651C150.252 96.0683 150.152 95.9694 150.152 95.6727C150.152 95.3759 150.252 95.178 150.452 94.9802C150.652 94.7823 150.952 94.6834 151.452 94.6834L151.352 94.5845Z" fill="white"/>
<path d="M161.351 91.9109V96.0657C161.751 95.67 162.051 95.3732 162.351 95.0765C162.651 94.8786 163.051 94.6808 163.451 94.5819C163.851 94.4829 164.351 94.384 164.751 94.384C165.451 94.384 166.051 94.5818 166.651 94.8786C167.251 95.1754 167.651 95.5711 167.951 96.1646C168.151 96.4614 168.251 96.8571 168.351 97.2528C168.351 97.6485 168.451 98.1431 168.451 98.6377V103.98C168.451 104.573 168.351 104.969 168.051 105.266C167.751 105.562 167.451 105.661 167.051 105.661C166.151 105.661 165.651 105.068 165.651 103.98V99.3302C165.651 98.4399 165.551 97.7474 165.251 97.2528C164.951 96.7582 164.451 96.5603 163.751 96.5603C163.051 96.5603 162.851 96.6592 162.451 96.956C162.051 97.2528 161.751 97.6485 161.551 98.1431C161.351 98.5388 161.351 99.3302 161.351 100.319V103.98C161.351 104.573 161.251 104.969 160.951 105.266C160.751 105.562 160.351 105.661 159.951 105.661C159.051 105.661 158.551 105.068 158.551 103.98V92.0098C158.551 91.4163 158.651 91.0206 158.951 90.7238C159.151 90.427 159.551 90.3281 159.951 90.3281C160.351 90.3281 160.751 90.427 160.951 90.7238C161.151 91.0206 161.351 91.4163 161.351 92.0098V91.9109Z" fill="white"/>
<path d="M76.2519 14.4521C65.4519 16.3317 56.7519 24.7402 54.1519 35.9186C53.4519 38.8863 53.3519 40.0734 53.5519 43.6347C53.8519 48.7787 54.4519 51.1529 56.7519 55.8023C58.0519 58.4732 59.1519 60.056 60.8519 61.9356L63.2519 64.5076L66.7519 61.0453C68.6519 59.1657 70.2519 57.5829 70.2519 57.484C70.2519 57.3851 69.3519 56.3958 68.3519 55.3077C64.8519 51.7464 63.3519 47.7895 63.3519 42.5465C63.3519 37.3035 67.1519 29.4886 73.2519 26.4219C77.0519 24.5424 79.0519 24.2456 92.1519 24.2456H103.952L108.352 19.893C110.752 17.5188 112.652 15.5403 112.552 15.4414C112.452 15.4414 111.752 15.0457 110.952 14.8478C109.252 14.3532 79.2519 14.0564 76.3519 14.5511L76.2519 14.4521Z" fill="white"/>
<path d="M118.353 23.9493L114.953 27.4117L117.053 29.588C120.553 33.446 122.153 37.403 122.153 42.7449C122.153 45.9104 121.353 49.076 119.953 51.648C118.653 54.1211 114.853 57.4845 112.053 58.7705C107.953 60.6501 105.953 60.9468 92.8535 60.9468H81.0535L76.8535 65.1016C72.1535 69.7511 72.1535 69.6521 75.9535 70.2457C79.6535 70.9381 107.153 70.7403 110.453 70.1468C118.253 68.564 125.853 62.3318 129.353 54.6157C131.253 50.4609 131.953 46.7018 131.753 41.3599C131.653 37.2051 131.453 36.3148 130.253 32.9514C129.553 30.9729 128.453 28.302 127.753 27.2138C126.553 25.2354 122.553 20.5859 121.953 20.5859C121.353 20.5859 120.153 22.0698 118.353 23.9493Z" fill="white"/>
<path d="M90.8517 33.648C82.9517 36.4179 82.1517 47.2006 89.4517 51.4543C90.9517 52.3446 91.5517 52.4436 94.2517 52.4436C96.9517 52.4436 97.5517 52.3446 99.0517 51.4543C103.652 48.7834 105.352 43.2436 103.052 38.3964C102.052 36.4179 99.2517 34.0437 97.2517 33.4502C95.3517 32.9556 92.5517 33.0545 90.8517 33.5491V33.648Z" fill="white"/>
</svg>
