<svg width="32" height="32" viewBox="0 0 32 32" fill="none" xmlns="http://www.w3.org/2000/svg">
<rect width="32" height="32" fill="white"/>
<path d="M8 24L9.14796 19.7354C8.22216 18.0741 7.92802 16.1355 8.31953 14.2754C8.71103 12.4153 9.76192 10.7583 11.2793 9.60865C12.7968 8.45899 14.6789 7.8937 16.5805 8.01652C18.4821 8.13933 20.2754 8.94202 21.6315 10.2773C22.9876 11.6126 23.8155 13.3908 23.9632 15.2858C24.111 17.1808 23.5686 19.0653 22.4358 20.5936C21.3029 22.1219 19.6555 23.1915 17.7958 23.6061C15.9362 24.0206 13.989 23.7523 12.3116 22.8504L8 24ZM12.5195 21.2546L12.7862 21.4124C14.0011 22.1307 15.4202 22.4279 16.8222 22.2578C18.2242 22.0877 19.5304 21.4597 20.5372 20.4718C21.544 19.4839 22.195 18.1915 22.3886 16.7961C22.5821 15.4006 22.3075 13.9805 21.6075 12.757C20.9074 11.5335 19.8212 10.5754 18.5182 10.0319C17.2152 9.48841 15.7686 9.39013 14.4038 9.75236C13.0389 10.1146 11.8325 10.917 10.9726 12.0345C10.1127 13.152 9.64754 14.5219 9.64963 15.9306C9.64849 17.0987 9.97236 18.2441 10.5852 19.2395L10.7524 19.5145L10.1106 21.8947L12.5195 21.2546Z" fill="black"/>
<path fill-rule="evenodd" clip-rule="evenodd" d="M18.9914 17.0256C18.8351 16.8999 18.652 16.8114 18.4562 16.7668C18.2604 16.7223 18.057 16.7229 17.8615 16.7687C17.5677 16.8904 17.3779 17.3502 17.1881 17.5801C17.1481 17.6352 17.0893 17.6739 17.0227 17.6888C16.9561 17.7038 16.8864 17.694 16.8265 17.6613C15.751 17.2411 14.8495 16.4706 14.2685 15.4749C14.2189 15.4127 14.1955 15.3338 14.203 15.2548C14.2106 15.1758 14.2487 15.1027 14.3092 15.0511C14.5209 14.8421 14.6763 14.5831 14.7611 14.2983C14.7799 13.9841 14.7078 13.6711 14.5532 13.3967C14.4337 13.0119 14.2063 12.6694 13.8979 12.4094C13.7388 12.338 13.5624 12.3141 13.39 12.3405C13.2176 12.3669 13.0565 12.4425 12.9262 12.5582C12.7 12.7528 12.5204 12.9957 12.4007 13.2687C12.2811 13.5418 12.2243 13.8382 12.2347 14.136C12.2354 14.3032 12.2566 14.4698 12.298 14.6319C12.4029 15.0213 12.5643 15.3934 12.777 15.7363C12.9305 15.999 13.098 16.2534 13.2787 16.4982C13.866 17.3024 14.6043 17.9853 15.4526 18.5088C15.8783 18.7748 16.3332 18.9911 16.8085 19.1534C17.3021 19.3767 17.8472 19.4623 18.3858 19.4014C18.6926 19.3551 18.9834 19.2342 19.2324 19.0495C19.4815 18.8647 19.6812 18.6218 19.814 18.342C19.892 18.173 19.9157 17.984 19.8817 17.801C19.8004 17.4269 19.2987 17.206 18.9914 17.0256Z" fill="black"/>
</svg>
